<?xml version="1.0" standalone="no"?><!DOCTYPE svg PUBLIC "-//W3C//DTD SVG 1.1//EN" "http://www.w3.org/Graphics/SVG/1.1/DTD/svg11.dtd"><svg t="1772029160226" class="icon" viewBox="0 0 1024 1024" version="1.1" xmlns="http://www.w3.org/2000/svg" p-id="5295" xmlns:xlink="http://www.w3.org/1999/xlink" width="200" height="200"><path d="M209.418079 238.802828l404.03608 0 0 55.113225L209.418079 293.916053l3.598968-39.522132L209.418079 238.802828 209.418079 238.802828zM209.412962 383.120724l317.092915 0 0 55.113225L209.412962 438.233949 209.412962 383.120724 209.412962 383.120724zM209.399659 556.096311l144.131655 0 0 55.112202L209.399659 611.208513l3.618411-17.040095L209.399659 556.096311 209.399659 556.096311zM405.395542 900.894218 120.638079 900.894218l0-781.079388 640.909975 0-0.008186 223.124753c15.584953 0 37.820374 3.873214 53.249785 3.873214L814.789653 95.133707c0-15.487739-15.429411-30.976502-30.857798-30.976502L96.137059 64.157205c-15.587 0-31.169907 15.488763-31.169907 30.976502L64.967152 927.220816c0 15.735379 15.473413 31.465642 30.948873 31.465642l344.265788 0c-15.470343-19.665899-17.275455-42.307571-28.965705-57.793264L405.395542 900.894218 405.395542 900.894218 405.395542 900.894218zM613.64347 651.480728c2.889817 3.64297 5.945409 7.176446 8.899694 10.598382 2.494821 2.883677 5.075599 5.869684 7.491625 8.848529 7.837502 9.66308 7.761778 16.050558-0.302899 25.319665-1.943258 2.232854-4.071735 4.329609-6.324032 6.54916-2.112104 2.081405-4.296863 4.235464-6.356778 6.544043-0.793062 0.89437-1.601474 1.778506-2.408863 2.667759-3.837398 4.221138-7.804756 8.583492-10.797927 13.731746-8.810666 15.158235-8.898671 31.18321-0.258896 46.348608 8.090259 14.19735 21.574365 21.702278 38.990013 21.702278l0.021489 0c13.57211-0.004093 27.140127-0.008186 40.709167-0.008186l56.127322 0.004093 5.206582-0.021489c5.974062 0 11.952216 0.005117 17.925255 0.00614 7.715729 0.00614 15.430434 0.008186 23.146163 0.008186 20.668739 0 36.449143-0.028653 51.167357-0.097214 5.01113-0.022513 9.955746-0.744967 14.302751-2.091638 13.556761-4.197602 23.893176-14.432711 28.356838-28.081569 4.626367-14.142092 1.992377-29.854958-7.043417-42.032302-4.336772-5.846148-9.465582-11.008728-14.422478-16.001439-1.989307-2.00261-4.043083-4.071735-5.984295-6.123464-11.610432-12.287861-11.741415-18.430768-0.656963-31.290657 7.233752-8.395204 14.257725-16.668635 20.691251-25.578562 27.484981-38.059827 37.027311-79.472006 28.358885-123.087363-6.27389-31.56388-18.807345-58.316174-37.252439-79.519078-18.700921-21.49864-43.554982-37.371142-73.870428-47.176462-18.036795-5.833869-35.909861-8.792247-53.124941-8.792247-40.065508 0-77.036537 15.682167-109.881596 46.610574-37.433564 35.243689-54.142108 80.375585-49.656957 134.140093C579.224566 594.930781 591.308789 623.329575 613.64347 651.480728zM659.535683 469.662753c11.865235-11.17041 24.447808-19.635199 37.396725-25.161053 12.628622-5.38873 25.974581-8.120958 39.667441-8.120958 12.154831 0 24.940019 2.14178 38.000476 6.364965 21.691021 7.017834 39.270399 18.140149 52.248991 33.060977 12.912078 14.83794 21.7647 33.966603 26.315342 56.852846 3.038196 15.297404 2.860141 30.28884-0.530073 44.560892-3.342118 14.09195-9.927093 28.008914-19.571754 41.3692-5.066389 7.016811-10.882861 13.858636-16.895809 20.832468-20.469194 23.756053-19.946284 47.342238 1.552356 70.097498 1.971911 2.088568 3.921309 4.054339 5.807263 5.954619l0.121773 0.121773c3.818979 3.845585 7.429203 7.477298 9.987468 10.92584 2.956332 3.981684 2.169409 7.798617 1.693572 9.252735-0.574075 1.752924-1.888 4.037966-4.882194 4.967128-0.970094 0.296759-2.318812 0.469698-3.708462 0.473791-17.241686 0.080841-34.370809 0.089028-45.754067 0.089028l-20.74344-0.005117c-6.927783-0.00614-13.849426-0.00614-20.778232-0.00614l-20.736277 0.016373-29.606295 0c-12.17632 0-24.352641 0-36.537148 0.007163-5.646604 0-6.605442-1.681292-7.712659-3.624551-2.201132-3.865028-2.177596-6.361895 0.096191-10.276041 1.01512-1.74576 3.428076-4.39817 5.76633-6.966669l0.122797-0.137123c0.7552-0.831948 1.5104-1.665942 2.269693-2.51017 1.177825-1.328251 2.75781-2.883677 4.287653-4.38896 2.124384-2.090615 4.767584-4.692882 7.318686-7.626701 17.148565-19.703761 17.501606-42.692335 0.970094-63.070454-2.427282-2.997264-4.857635-5.811356-7.208169-8.531304l-0.13917-0.161682c-2.425236-2.800789-4.931313-5.696746-7.144724-8.490372-16.067954-20.25123-24.722054-40.202631-26.456558-60.994166-1.588171-19.039635 0.473791-36.604686 6.125511-52.210106C636.605438 496.525564 646.248052 482.171648 659.535683 469.662753zM494.312664 904.679427l464.179878 0L958.492542 959.792653 494.312664 959.792653 494.312664 904.679427zM608.403119 818.721707l250.319116 0L858.722234 873.834932 608.403119 873.834932 608.403119 818.721707z" fill="#515151" p-id="5296"></path></svg>